# xmcd
#
# Track frame offsets: 
#        150
#        450
#        17939
#        44094
#        60032
#        84054
#        109529
#        129249
#        150384
#        167944
#
# Disc length: 2643 seconds
#
# Revision: 0
# Processed by: cddbd v1.5.2PL0 Copyright (c) Steve Scherf et al.
# Submitted via: ExactAudioCopy v1.3
#
DISCID=650a510a
DTITLE=Jimmy Dawkins - Blues And Pain
DYEAR=1994
DGENRE=Chicago Blues
TTITLE0=Right To Quit You
TTITLE1=No Pain
TTITLE2=Blues And Soul
TTITLE3=Lonely Guitar Man
TTITLE4=Fool In Heah
TTITLE5=Gitar Jive
TTITLE6=Know Your Lover
TTITLE7=Driftin' Sand
TTITLE8=Down With The Blues
TTITLE9=Who Done It
EXTD=
EXTT0=
EXTT1=
EXTT2=
EXTT3=
EXTT4=
EXTT5=
EXTT6=
EXTT7=
EXTT8=
EXTT9=
PLAYORDER=
